<?xml version="1.0" standalone="no"?>
<!DOCTYPE svg PUBLIC "-//W3C//DTD SVG 20010904//EN"
 "http://www.w3.org/TR/2001/REC-SVG-20010904/DTD/svg10.dtd">
<svg version="1.0" xmlns="http://www.w3.org/2000/svg"
 width="500.000000pt" height="500.000000pt" viewBox="0 0 500.000000 500.000000"
 preserveAspectRatio="xMidYMid meet">
<metadata>
Created by potrace 1.14, written by Peter Selinger 2001-2017
</metadata>
<g transform="translate(0.000000,500.000000) scale(0.100000,-0.100000)"
fill="#000000" stroke="none">
<path d="M2335 4109 c-147 -14 -306 -51 -456 -105 -135 -49 -359 -174 -372
-208 -4 -11 -17 -13 -49 -10 -24 3 -50 7 -58 10 -45 16 -238 22 -320 10 -81
-11 -104 -17 -190 -42 -100 -31 -121 -41 -218 -106 -114 -76 -178 -146 -229
-251 -112 -230 -59 -440 140 -555 41 -24 62 -29 153 -38 67 -7 80 1 65 38 -5
13 -17 53 -27 90 -15 62 -20 69 -65 96 -54 34 -78 73 -81 129 -7 217 227 396
535 407 82 3 103 -3 74 -21 -25 -16 -109 -118 -129 -156 -14 -29 -24 -38 -38
-34 -10 2 -23 2 -28 -2 -6 -4 -27 -68 -47 -144 -39 -147 -57 -197 -86 -238
-10 -14 -20 -38 -23 -54 -3 -16 -10 -33 -16 -39 -5 -5 -10 -18 -10 -28 0 -11
-9 -37 -20 -59 -21 -41 -53 -236 -39 -244 11 -8 -9 -82 -53 -193 -33 -82 -44
-102 -57 -96 -237 100 -434 94 -541 -16 -118 -121 -83 -285 76 -365 55 -27 67
-29 174 -30 135 0 234 26 306 82 l44 33 54 -27 c47 -23 54 -30 52 -52 -1 -14
1 -31 5 -36 4 -6 20 -44 35 -85 38 -108 143 -308 166 -318 5 -2 8 -8 8 -13 0
-15 80 -115 150 -188 9 -9 28 -32 42 -52 43 -58 133 -139 155 -139 7 0 13 -3
13 -8 0 -9 134 -112 145 -112 5 0 31 -15 59 -32 51 -33 151 -78 173 -78 7 0
46 -16 87 -35 41 -19 94 -39 118 -45 23 -5 70 -16 103 -24 33 -7 84 -11 114
-8 38 3 52 1 47 -7 -4 -6 0 -12 11 -12 10 -1 32 -3 48 -4 70 -7 233 -7 275 0
25 4 52 7 60 7 8 0 38 4 65 9 28 5 68 11 90 15 22 3 78 19 125 35 47 17 114
40 150 53 83 29 120 49 144 75 11 12 26 21 35 21 26 0 164 79 186 107 16 19
32 25 75 29 196 16 370 134 511 349 71 107 79 121 131 231 33 71 33 71 121
118 151 79 217 126 318 226 104 104 179 225 255 414 13 33 23 60 21 61 -6 5
-175 45 -189 45 -9 0 -19 -12 -23 -27 -26 -105 -147 -293 -251 -393 -63 -59
-114 -99 -114 -87 0 2 11 41 25 88 15 46 36 127 49 179 13 52 49 187 80 300
96 349 115 424 112 427 -2 2 -52 4 -112 5 l-109 2 -18 -55 c-10 -30 -36 -121
-57 -204 -21 -82 -58 -217 -81 -300 -23 -82 -48 -178 -56 -212 -8 -35 -19 -63
-25 -63 -5 0 -6 5 -3 10 3 6 2 10 -4 10 -5 0 -11 12 -13 28 -2 19 -6 11 -13
-30 -8 -44 -8 -55 1 -47 9 8 11 4 8 -13 -3 -19 -1 -17 11 7 14 26 15 27 10 5
-4 -14 -7 -30 -7 -37 -1 -7 -6 -9 -11 -6 -6 4 -8 0 -4 -10 3 -9 2 -19 -3 -22
-5 -3 -7 -12 -3 -20 3 -8 0 -15 -6 -15 -6 0 -10 3 -9 8 2 4 -1 7 -7 7 -5 0
-10 -7 -11 -15 -12 -86 -19 -104 -35 -94 -6 3 -7 -5 -4 -23 5 -22 4 -25 -5
-13 -9 13 -11 12 -8 -5 3 -13 10 -19 22 -17 17 3 18 2 3 -12 -17 -17 -115 -66
-132 -66 -6 0 -73 -25 -150 -56 -77 -31 -162 -65 -189 -76 -103 -40 -202 -103
-262 -165 -89 -91 -103 -243 -31 -333 7 -9 29 -29 50 -45 36 -27 38 -29 18
-37 -12 -4 -21 -11 -21 -17 0 -13 -43 -22 -51 -10 -3 6 -9 -1 -13 -15 -5 -21
-11 -25 -29 -21 -12 3 -39 -3 -62 -15 -21 -11 -33 -20 -25 -20 18 0 -1 -20
-21 -23 -8 -2 -20 -6 -27 -10 -7 -5 -25 -11 -40 -13 -15 -3 -37 -12 -49 -20
-18 -11 -23 -11 -23 -2 0 7 -9 0 -20 -17 -17 -26 -20 -27 -20 -9 0 17 -5 20
-25 16 -14 -2 -23 -8 -20 -12 3 -4 -1 -13 -9 -19 -11 -9 -15 -9 -18 0 -3 9
-11 6 -26 -9 -12 -12 -29 -22 -38 -22 -18 0 -44 -24 -44 -40 0 -7 -7 -9 -16
-6 -9 3 -21 6 -27 6 -7 1 -2 9 11 19 21 19 31 38 13 27 -5 -4 -11 -2 -13 4 -2
6 -15 3 -33 -6 -39 -21 -63 -25 -70 -13 -7 10 -263 4 -297 -7 -10 -3 -25 -1
-33 6 -7 6 -28 12 -47 14 -18 2 -41 6 -50 10 -9 4 -31 8 -50 10 -18 1 -37 4
-43 7 -5 4 -28 7 -49 7 -22 1 -42 5 -45 10 -3 4 -32 19 -64 32 -47 18 -61 20
-67 10 -6 -9 -11 -7 -19 8 -6 12 -50 40 -98 63 -48 23 -113 59 -146 82 -32 22
-73 43 -90 46 -20 4 -32 13 -32 23 0 9 -24 34 -53 57 -28 23 -52 45 -52 50 0
4 -20 22 -45 40 -25 18 -43 36 -40 41 3 4 -5 10 -17 13 -12 4 -19 9 -16 12 7
7 4 10 -73 94 -34 37 -49 61 -45 74 2 10 -4 27 -15 38 -10 10 -19 24 -19 29 0
6 -12 23 -26 37 -14 14 -27 31 -29 37 -1 6 -4 18 -7 26 -3 8 -16 44 -29 80
-12 36 -26 69 -31 74 -4 6 -8 15 -8 22 0 9 17 8 67 -3 66 -14 272 -14 333 1
14 3 39 8 55 12 55 11 169 55 223 86 160 91 307 264 372 434 30 79 67 204 75
251 3 21 10 61 15 88 13 79 5 301 -14 380 -38 154 -97 279 -180 380 -89 108
-150 154 -318 242 -26 14 -48 26 -48 27 0 1 14 1 32 0 19 -1 36 4 43 12 6 9
17 16 25 18 8 1 47 18 85 38 39 19 95 46 125 58 30 13 61 28 68 34 14 10 202
61 272 74 38 6 448 9 520 3 25 -2 54 -9 65 -16 11 -7 47 -19 80 -28 33 -9 98
-30 145 -47 47 -17 87 -31 90 -31 17 1 88 -25 101 -36 8 -7 23 -13 32 -13 9 0
18 -3 20 -7 3 -5 -23 -9 -56 -11 -234 -10 -417 -192 -435 -432 -7 -101 42
-233 113 -304 14 -14 13 -16 -12 -22 -199 -44 -367 -169 -443 -331 -69 -147
-95 -345 -61 -468 48 -173 168 -307 326 -362 98 -35 178 -46 278 -40 260 17
462 165 588 430 16 34 32 77 35 95 5 24 11 31 23 28 142 -42 277 -54 342 -31
56 20 126 71 157 114 16 22 34 36 42 34 11 -3 12 -2 3 4 -10 7 -9 22 3 68 21
81 12 148 -31 219 -19 31 -30 54 -24 51 13 -9 12 2 -16 97 -46 157 -206 437
-317 553 -21 22 -38 43 -38 47 0 12 -173 174 -240 225 -113 85 -213 139 -267
142 -6 1 -18 8 -26 16 -38 38 -270 109 -396 121 -31 3 -81 12 -111 21 -30 8
-66 17 -80 19 -50 8 -227 9 -295 3z m1031 -554 c33 -25 60 -73 57 -102 0 -7
-1 -19 -2 -27 0 -8 -13 -28 -27 -46 l-26 -31 32 -74 c18 -41 38 -75 45 -75 49
0 148 93 171 162 19 58 25 135 14 186 -9 36 -8 37 9 16 9 -12 27 -25 39 -28
12 -4 20 -11 17 -15 -2 -5 10 -22 28 -39 41 -39 78 -82 96 -113 37 -60 221
-434 221 -447 0 -10 -6 -12 -22 -7 -75 24 -283 11 -294 -19 -4 -11 37 -153 51
-176 3 -5 19 -1 36 7 36 18 110 13 132 -8 27 -27 26 -66 -2 -98 -46 -53 -150
-60 -291 -21 -145 41 -243 59 -305 56 -126 -7 -241 -64 -305 -153 l-39 -55 47
-32 c26 -17 61 -42 78 -55 l31 -23 49 49 c47 47 63 55 147 69 33 6 34 -2 6
-81 -40 -114 -130 -208 -254 -267 -61 -28 -80 -32 -150 -32 -98 1 -173 28
-237 83 -107 94 -141 256 -87 406 51 139 139 228 279 280 66 25 89 28 185 28
l110 0 43 85 c23 46 41 86 40 87 -2 2 -35 19 -74 38 -111 56 -184 151 -189
247 -5 82 11 131 58 184 52 58 102 77 185 72 49 -3 70 -10 98 -31z m-1935 -11
c250 -71 402 -249 453 -529 10 -51 7 -227 -3 -283 -50 -258 -159 -441 -323
-545 -59 -38 -166 -83 -218 -92 -136 -24 -347 1 -414 50 -18 13 -18 15 1 42
42 59 171 434 197 573 6 29 71 272 85 315 22 68 71 277 66 285 -3 4 -14 6 -25
3 -11 -3 -27 -3 -35 1 -14 5 -13 9 4 28 12 12 21 25 21 30 0 4 3 7 8 6 11 -4
62 38 62 51 0 6 4 11 9 11 5 0 15 16 22 35 15 40 16 40 90 19z m2654 -644 c3
-5 1 -10 -4 -10 -6 0 -11 5 -11 10 0 6 2 10 4 10 3 0 8 -4 11 -10z m-3595
-793 l45 -19 -32 -14 c-90 -38 -225 -17 -206 33 14 35 113 35 193 0z m3600
-119 c0 -19 -35 -118 -42 -118 -8 0 2 41 14 57 5 6 8 17 7 25 -3 27 1 48 11
48 6 0 10 -5 10 -12z m-172 -427 c-7 -11 -14 -19 -17 -18 -4 1 -16 -4 -27 -11
-12 -6 -25 -8 -29 -4 -5 4 -5 2 -2 -4 4 -7 0 -14 -8 -18 -8 -3 -15 -13 -15
-22 0 -10 -5 -14 -14 -11 -16 6 -32 -26 -27 -52 1 -7 -2 -10 -8 -7 -15 10 -25
-14 -11 -27 10 -9 11 -9 5 2 -5 9 -4 12 3 7 13 -8 31 23 25 42 -3 6 0 12 7 12
6 0 8 -4 5 -10 -3 -5 -1 -10 4 -10 6 0 11 7 11 16 0 8 5 12 10 9 7 -4 9 3 6
20 -4 22 -2 24 9 15 9 -7 15 -8 20 0 3 5 0 10 -7 10 -8 1 -6 6 6 15 11 8 25
15 30 15 6 0 2 -7 -8 -15 -11 -8 -16 -15 -12 -15 10 0 -49 -76 -87 -112 -16
-16 -33 -28 -39 -28 -5 0 -6 -6 -2 -12 6 -10 4 -10 -7 0 -16 15 -29 16 -29 1
0 -5 5 -7 10 -4 6 3 10 1 10 -4 0 -13 -13 -14 -24 -3 -10 10 -56 10 -50 0 3
-4 0 -8 -5 -8 -6 0 -11 5 -11 11 0 5 -5 7 -11 4 -6 -5 -4 -12 8 -21 11 -8 13
-13 6 -14 -21 0 -15 -16 7 -17 11 -1 19 1 19 5 -3 19 2 30 14 28 6 -1 12 -6
12 -11 0 -6 -5 -9 -12 -7 -7 2 -12 -3 -11 -10 2 -7 -5 -12 -14 -12 -10 1 -18
-3 -18 -10 -1 -6 -6 -1 -14 12 -11 21 -14 22 -26 7 -11 -13 -10 -15 4 -9 17 7
21 -3 8 -24 -5 -7 -33 -13 -70 -14 -65 -2 -95 13 -105 53 -15 57 114 142 325
214 61 21 123 44 137 51 33 18 33 18 19 -5z"/>
<path d="M3713 1385 c0 -8 4 -12 9 -9 5 3 6 10 3 15 -9 13 -12 11 -12 -6z"/>
<path d="M4483 3384 c-48 -24 -66 -49 -70 -101 -9 -109 102 -179 194 -122 62
39 81 114 43 176 -10 17 -29 37 -41 43 -34 19 -91 20 -126 4z"/>
<path d="M4163 2503 c-7 -2 -13 -9 -13 -14 0 -6 5 -7 10 -4 6 3 10 2 10 -4 0
-5 -5 -11 -11 -13 -13 -4 9 -58 24 -58 5 0 4 7 -3 15 -9 11 -9 19 -2 28 7 8 7
18 2 27 -5 8 -6 18 -4 22 6 9 5 9 -13 1z"/>
<path d="M4115 2241 c-3 -5 -1 -12 5 -16 5 -3 10 1 10 9 0 18 -6 21 -15 7z"/>
<path d="M4000 1839 c0 -5 5 -7 10 -4 6 3 10 8 10 11 0 2 -4 4 -10 4 -5 0 -10
-5 -10 -11z"/>
</g>
</svg>
